<?xml version="1.0" encoding="UTF-8"?>
<svg width="145px" height="107px" viewBox="0 0 145 107" version="1.1" xmlns="http://www.w3.org/2000/svg" xmlns:xlink="http://www.w3.org/1999/xlink">
    <!-- Generator: Sketch 61.1 (89650) - https://sketch.com -->
    <desc>Created with Sketch.</desc>
    <g id="Page-1" stroke="none" stroke-width="1" fill="none" fill-rule="evenodd" stroke-linecap="round">
        <g id="logo-mark" transform="translate(1.000000, 1.000000)" stroke="#FFFFFF" stroke-width="2">
            <path d="M26.8068654,41.0459337 C26.8068654,41.0459337 27.8534579,59.2930129 32.7760518,56.4518472 C37.6986457,53.6106816 36.060187,35.3636023 36.060187,35.3636023 C36.6231816,42.6580964 37.0418186,49.9815081 37.3449696,57.290461 C37.8502212,70.8239524 39.1710931,85.9117711 34.7970581,98.8379904 C34.4006931,100.122536 33.7055646,101.2945 32.7688339,102.25751 C29.1598941,105.792701 24.7208982,103.291319 21.61721,100.558595 C-6.68409586,75.6676699 -8.73397366,27.7799311 24.6487194,6.22900281 C29.7012351,2.98298911 36.7458856,-0.0678299964 42.2386919,3.83606175 C44.4040558,5.39038902 45.7249278,7.92068923 46.6271627,10.4509894 C50.5897786,21.5770809 48.590426,33.7008336 48.3233644,45.2173143 C48.248819,47.6937606 48.3114702,50.1724422 48.5110293,52.641938 C48.6409511,54.0878239 48.9585378,56.2566526 49.2328173,57.7025385 C49.2328173,57.8143342 49.3233008,57.9049625 49.4349179,57.9049625 C49.546535,57.9049625 49.6370185,57.8143342 49.6370185,57.7025385 C49.7380688,56.5313709 50.0700913,55.15055 50.1567058,54.3914599 C50.3626834,52.5408685 50.6638285,50.7021506 51.0589408,48.8826349 C51.8285983,45.0827187 53.2186458,41.4359436 55.1731321,38.0890971 C55.2837774,37.9102863 55.4866452,37.8104507 55.6955735,37.8319924 C55.9045018,37.8535341 56.0828087,37.9926712 56.1547638,38.1903091 C56.8271988,40.2224465 57.6499097,42.201562 58.6160607,44.1112116 C58.8446238,44.659517 59.2844474,45.0922244 59.8358824,45.3112969 C61.4887768,45.7306038 62.5498051,42.9183558 63.2427215,41.8122532 C64.1088671,40.4097439 64.9966663,39.0289229 65.8122866,37.597496 C67.8405108,34.0478462 70.1935396,30.1873311 70.2368468,25.9798033 C70.2938628,25.575866 70.1382323,25.1711262 69.8254277,24.9098478 C69.450098,24.6857355 68.9737179,24.9098478 68.6128239,25.1556484 C66.3641787,26.6896298 64.6943684,28.9348798 63.870677,31.5320049 C63.5243679,32.3901833 63.4962034,33.3441781 63.7912804,34.2213525 C64.2399079,35.1166866 65.1192196,35.7156848 66.1154376,35.8045975 C67.1087134,35.8819033 68.1047417,35.6948492 69.0025894,35.2623903 C72.6359347,33.6323297 75.1352616,30.1964457 75.5708598,26.2328333 C75.5839435,26.1816514 75.6299885,26.1458533 75.682737,26.1458533 C75.7354855,26.1458533 75.7815304,26.1816514 75.7946141,26.2328333 C75.9678432,29.225817 74.062323,39.5928184 74.0406694,45.5860152 C74.0406694,51.8900774 74.3366024,59.1556537 77,64.9753442" id="Path" stroke-linejoin="round"></path>
            <path d="M80,26.1739701 C80,26.1739701 89.3220339,24.7469076 88.3252934,19.0386575 C87.2066493,12.7738529 77.0456323,31.168689 83.8722295,28.7854945 C88.7555411,27.0944254 94.8507171,20.7154559 97.9269883,17.226288 C99.4395834,15.56252 99.9818443,13.2396381 99.3611473,11.0827838 C98.9595828,9.75561569 98.2711864,8.99213724 97.095176,10.7759654 C94.9009126,14.1152917 99.6766623,24.2831123 100.953064,26.8589601 C100.996487,26.9626593 101.098313,27.0302076 101.211213,27.0302076 C101.324112,27.0302076 101.425938,26.9626593 101.469361,26.8589601 C102.652542,23.4482807 108.260104,7.0513322 109.149283,0.130078919 C109.165439,0.0542436626 109.23272,0 109.310626,0 C109.388532,0 109.455813,0.0542436626 109.471969,0.130078919 L110.339635,7.20830907 C111.006519,12.6097408 111.279009,18.0825256 113.329857,23.1985447 C113.530639,23.7051519 113.860495,24.2831123 114.405476,24.2831123 C114.950456,24.2831123 115.287484,23.6908813 115.466754,23.1771388 C116.420469,20.4799906 116.51369,17.5259712 117.617992,14.8930408 C117.757467,14.4683922 118.031763,14.1003001 118.399609,13.8441498 C119.833768,13.0521301 121.131682,16.6625983 121.56193,17.5259712 C121.883364,18.3835883 122.322561,19.1928018 122.867014,19.9305715 C123.001582,20.0958577 123.180662,20.2196035 123.383312,20.2873372 C123.609115,20.353373 123.852648,20.2772935 124,20.0946837" id="Path" stroke-linejoin="round"></path>
            <line x1="58" y1="59" x2="143" y2="22" id="Path"></line>
        </g>
    </g>
</svg>